<svg xmlns="http://www.w3.org/2000/svg" aria-hidden="true">
  <symbol id="icon-machine" viewBox="0 0 24 24">
    <circle cx="12" cy="12" r="7" fill="none" stroke="currentColor" stroke-width="2"/>
    <path d="M12 5v14M5 12h14M7.1 7.1l9.8 9.8M16.9 7.1l-9.8 9.8" fill="none" stroke="currentColor" stroke-width="1.6"/>
  </symbol>
  <symbol id="icon-supervision" viewBox="0 0 24 24">
    <rect x="5" y="5" width="14" height="14" rx="2" fill="none" stroke="currentColor" stroke-width="2"/>
    <path d="M9 9h6v6H9zM3 9h2M3 15h2M19 9h2M19 15h2M9 3v2M15 3v2M9 19v2M15 19v2" fill="none" stroke="currentColor" stroke-width="1.6"/>
  </symbol>
  <symbol id="icon-safety" viewBox="0 0 24 24">
    <path d="M12 3l7 3v5c0 4.3-2.8 7.8-7 10-4.2-2.2-7-5.7-7-10V6l7-3z" fill="none" stroke="currentColor" stroke-width="2"/>
    <path d="M9 12l2 2 4-5" fill="none" stroke="currentColor" stroke-width="2"/>
  </symbol>
  <symbol id="icon-research" viewBox="0 0 24 24">
    <path d="M9 3v6l-4 8a3 3 0 0 0 2.7 4h8.6A3 3 0 0 0 19 17l-4-8V3" fill="none" stroke="currentColor" stroke-width="2"/>
    <path d="M8 3h8M8 15h8" fill="none" stroke="currentColor" stroke-width="1.6"/>
  </symbol>
</svg>
